<?xml version="1.0" encoding="UTF-8"?>
<svg width="83px" height="89px" viewBox="0 0 83 89" version="1.1" xmlns="http://www.w3.org/2000/svg" xmlns:xlink="http://www.w3.org/1999/xlink">
    <!-- Generator: Sketch 43.2 (39069) - http://www.bohemiancoding.com/sketch -->
    <title>lighthouse copy</title>
    <desc>Created with Sketch.</desc>
    <defs></defs>
    <g id="Page-1" stroke="none" stroke-width="1" fill="none" fill-rule="evenodd">
        <g id="lighthouse-copy" fill-rule="nonzero" fill="#000000">
            <path d="M16.0754561,49 L17.6259765,40 L13,40 L13,33 L18.5,33 L18.5,21 L14,21 L33,0 L52,21 L48,21 L48,33 L53,33 L53,40 L48.3433336,40 L53.4342427,72 L53.5,72 L53.5,72.4133318 L55.1699289,82.9100274 C57.0689802,83.535693 58.1240294,83.8443915 59.2789429,84.0855858 C60.2722421,84.2930282 61.1674501,84.3984375 62,84.3984375 L64,84.3984375 L64,88.3984375 L62,88.3984375 C60.8712511,88.3984375 59.7077457,88.2614367 58.4612176,88.0011094 C57.0463766,87.7056314 55.8310763,87.3437132 53.5807709,86.5975898 C49.824939,85.3522859 48.4686722,85 46.8828125,85 C45.2969633,85 43.8588655,85.388863 40.5107246,86.5829936 C36.7123811,87.9376911 35.0084433,88.3984375 32.7949219,88.3984375 C30.3992848,88.3984375 28.6588018,87.9329056 24.9265487,86.5793998 C21.6304815,85.3840774 20.1945322,85 18.421875,85 C17.0442374,85 14.9582871,85.3185255 12.4003967,85.8926332 C11.4341253,86.1095087 10.4187681,86.3586309 9.36971217,86.6337827 C7.97707468,86.9990509 6.59640598,87.3910047 5.2917938,87.7828839 C4.83557034,87.9199242 4.42185077,88.0470375 4.05855205,88.1608897 C3.84239779,88.2286291 3.69234462,88.2764821 3.61628179,88.301119 L1.71360032,88.9174008 L0.481036749,85.1120378 L2.38371821,84.495756 C2.47159581,84.4672923 2.63374509,84.4155818 2.86237691,84.3439321 C3.2403883,84.2254692 3.66920566,84.0937172 4.14106752,83.9519794 C5.48812771,83.5473498 6.91318411,83.1427948 8.3548972,82.7646548 C9.0314648,82.5872011 9.69582382,82.4198341 10.3447332,82.2639963 L12,72.6559957 L12,72 L12.113015,72 L16,49.437985 L16,49 L16.0754561,49 Z M17.8947422,62 L16.1719418,72 L49.3839391,72 L47.7930301,62 L17.8947422,62 Z M20.1343829,49 L45.7248482,49 L44.2930301,40 L21.6849033,40 L20.1343829,49 Z M44,21 L22.5,21 L22.5,33 L44,33 L44,21 Z M79.3282661,13.5028598 L80.4971402,17.3282661 L58.5010541,24.0492924 L57.3321799,20.2238861 L79.3282661,13.5028598 Z M80.4971402,36.6717339 L79.3282661,40.4971402 L57.3321799,33.7761139 L58.5010541,29.9507076 L80.4971402,36.6717339 Z M83,25 L83,29 L65,29 L65,25 L83,25 Z" id="Combined-Shape"></path>
        </g>
    </g>
</svg>