<svg xmlns="http://www.w3.org/2000/svg" viewBox="0 0 301.46 58.75"><path d="M27.44 8.55c3.47 0 5.25 1.45 5.25 3.63 0 1.61-1.29 3-1.29 5.73 0 4.12 2.9 7.26 7.59 7.26 4.92 0 8.15-3.39 8.15-8.72 0-7.5-5.89-13.56-19.29-13.56C11.62 2.91 0 14.61 0 31.39c0 16.46 9.68 27.36 26.15 27.36 13.48 0 21.71-8.72 21.71-19.29 0-3.55-1.13-4.6-2.58-4.6s-2 1.37-2.42 2.18c-2.19 4.36-5.86 8.88-13.73 8.88-9.36 0-15-7.91-15-19C14.12 16 20.25 8.55 27.44 8.55zM67.7 56.24c0-.73-.56-1.29-1-2.1-.73-1.37-1-2.42-1-5.73V30.83c0-4.36 2.91-7.91 6-7.91 2.74 0 4.28 2.1 4.28 5.65v19.85c0 3.31-.24 4.36-1 5.73-.48.81-1 1.37-1 2.1 0 .89.48 1.29 1.37 1.29h15.03c1 0 1.45-.4 1.45-1.29 0-.73-.56-1.29-1-2.1-.81-1.37-1-2.42-1-5.73V28.65c0-7.42-4.44-12.75-12.43-12.75a13.78 13.78 0 0 0-11.7 7V6.05c0-1.78-.24-2.1-2.18-2.1H52.61c-1.78 0-2.42.65-2.42 1.78A6.14 6.14 0 0 0 51 8.15a15.81 15.81 0 0 1 .89 6.13v34.14c0 3.31-.24 4.36-1 5.73-.48.81-1 1.37-1 2.1 0 .89.48 1.29 1.45 1.29h15c.89 0 1.37-.4 1.37-1.29zm68.91-19.12c0-14.28-9-21.38-21-21.38-12.18 0-21.3 8.15-21.3 21.38 0 13.72 9 21.38 21.14 21.38s21.14-8.07 21.14-21.38zm-14.2 1.94c0 9.12-2.26 14.85-6.37 14.85-4.36 0-7.42-6-7.42-18.88 0-9 2.34-14.69 6.37-14.69 4.36 0 7.42 5.81 7.42 18.72zm60.28-3.15c0-12.27-6-20.17-15.74-20.17-6.21 0-10.17 3.23-11.94 6.54V6.05c0-1.78-.24-2.1-2.18-2.1h-11c-1.78 0-2.42.65-2.42 1.78a6.14 6.14 0 0 0 .81 2.42 15.81 15.81 0 0 1 .89 6.13v29.78c0 7.1-.32 9.28-.32 11.38a2.49 2.49 0 0 0 2.82 2.74 11.39 11.39 0 0 0 3.87-1 6.78 6.78 0 0 1 2.34-.4 11.93 11.93 0 0 1 2.91.48 30.31 30.31 0 0 0 8 1.21c13.88 0 21.95-8.63 21.95-22.59zm-23-12.51c5.33 0 8.39 6.13 8.39 16.3 0 9.52-3.31 14.2-7.34 14.2-3.23 0-5.73-3.23-5.73-7.42V29.05c0-3.63 1.69-5.65 4.68-5.65zM216 58.34c5.33 0 8.15-1.21 8.15-2.91 0-.73-.32-1-.89-1.53-.81-.73-1.45-1.29-1.45-4.28l.08-19.45c0-8.72-5.25-14.53-18.4-14.53-11.3 0-17 4.6-17 10.65a6 6 0 0 0 6.21 6.37c3.79 0 6-2.66 6-5.33 0-2.1-.73-3.07-.73-4.44s1.53-2.74 4.36-2.74c4.28 0 6.29 2.91 6.29 8.07v3.63c-16.3 1.45-23.56 6.37-23.56 15 0 6.7 5 11.7 12.43 11.7a12.32 12.32 0 0 0 11.14-6.13c.16 3.79 1.53 5.89 7.42 5.89zm-13.48-6.46c-3.15 0-4.92-2.66-4.92-5.73 0-4.76 3.55-8.31 11-9.76l-.08 8.88c0 3.47-2.58 6.62-6 6.62zm41.4 4.36c0-.73-.56-1.29-1-2.1-.73-1.37-1-2.42-1-5.73V30.83c0-4.36 2.58-8 5.73-8 2.74 0 4.36 1.94 4.36 5.73v19.86c0 3.31-.24 4.36-1 5.73-.48.81-1 1.37-1 2.1 0 .89.48 1.29 1.37 1.29h15.09c1 0 1.45-.4 1.45-1.29 0-.73-.56-1.29-1-2.1-.81-1.37-1-2.42-1-5.73V29.05c0-7.67-4.36-13.15-12.35-13.15a13.76 13.76 0 0 0-12 7.26v-4.28c0-1.78-.24-2.18-2.18-2.18h-10.94c-1.69 0-2.26.65-2.26 1.61a6 6 0 0 0 1 2.5c.81 1.45.89 2.91.89 6.13v21.48c0 3.31-.24 4.36-1 5.73-.48.81-1 1.37-1 2.1 0 .89.48 1.29 1.45 1.29h15c.89 0 1.37-.4 1.37-1.29zm26.65-49.06c0 4 3 7.18 8.07 7.18s8.07-3.23 8.07-7.18S283.72 0 278.64 0s-8.07 3.15-8.07 7.18zm1 50.35h14.93c1 0 1.45-.4 1.45-1.29 0-.73-.56-1.29-1-2.1-.73-1.37-1-2.42-1-5.73V18.88c0-1.78-.24-2.18-2.18-2.18h-11.3c-1.69 0-2.26.65-2.26 1.61a6 6 0 0 0 1 2.5c.73 1.45.89 2.91.89 6.13v21.48c0 3.31-.24 4.36-1 5.73-.48.81-1 1.37-1 2.1 0 .89.48 1.29 1.45 1.29zM296.19 51.26h.91c.61 0 .91.24.91.73s-.32.73-.91.73h-.91zm2.6.73c0-.9-.6-1.4-1.69-1.4h-1.7v4.87h.79v-2.05h.81l1.11 2.05h.89l-1.22-2.11a1.39 1.39 0 0 0 1-1.36M297 57a3.9 3.9 0 1 1 3.85-3.9A3.75 3.75 0 0 1 297 57m0-8.36a4.46 4.46 0 1 0 4.47 4.46 4.32 4.32 0 0 0-4.47-4.49" fill="#1c3c34"/></svg>