<svg xmlns="http://www.w3.org/2000/svg" width="2.438em" height="1em" aria-hidden="true" viewBox="0 0 39 16"><path fill-rule="evenodd" d="m14.194.082.001.119.004.093c.02.467.121 1.61.61 2.546.334.636.864 1.21 1.29 1.609h15.646l.872-.304.662-.228c2.054-.7 4.62-1.53 5.098-1.47.819.104-3.632 1.919-3.632 2.927 0 1.01 2.43 1.808 1.032 1.631-.83-.105-2.496-.845-3.712-1.429-3.372 3.886-10.487 7.606-16.665 7.606-.69 0-1.37-.026-2.037-.077a3.755 3.755 0 0 0-.267.543c-.38.98-.215 2.106-.185 2.287l.004.025-2.692-3.08a3.44 3.44 0 0 0-.553.378c-.656.56-1 1.43-1.07 1.623l-.014.039-.575-2.824a18.394 18.394 0 0 1-2.632-1.052l1.935-2.935-.062.041c-.231.153-1.075.688-2.015 1.019-1.106.389-2.17.435-2.17.435h-.001l-.002.002-.092-.072C1.22 8.138.17 6.435.117 4.593l-.002-.144h11.793L14.194.081ZM3.678 6.057c-.381 0-.69.155-.69.345 0 .19.309.345.69.345.38 0 .69-.154.69-.345 0-.19-.31-.345-.69-.345Z"/></svg>