<svg xmlns="http://www.w3.org/2000/svg" width="1em" height="1em" viewBox="0 0 16 16"><g fill="none" fill-rule="evenodd"><path d="M13.87 9.549a2.716 2.716 0 0 0-.426.11c-.134.046-.24.055-.338-.075-.11-.149-.255-.154-.42-.08-.198.088-.405.155-.603.24-.135.058-.262.132-.392.2-.105.056-.166.14-.153.264.038.365-.127.582-.459.729-.295.13-.576.303-.77.58a.641.641 0 0 0 .039.792c.179.202.403.22.696.06.138-.076.273-.165.42-.214.855-.286 1.628-.738 2.398-1.192.34-.2.6-.483.602-.92-.002-.37-.222-.558-.593-.494Zm-.12 1.206c-.753.426-1.494.878-2.32 1.159-.175.06-.337.16-.504.243-.194.099-.3.095-.4-.02-.121-.135-.147-.355-.027-.488.117-.13.256-.246.403-.34.174-.112.363-.201.552-.285.151-.067.235-.169.249-.334.014-.167.032-.334.053-.54.17-.072.358-.153.547-.231.181-.075.364-.148.576-.233.19.298.435.285.709.179.118-.046.246-.074.372-.086.168-.017.252.07.26.241.015.355-.202.583-.47.735Z"/><path fill="#000" fill-rule="nonzero" d="M15.197 7.617c-2.024 1.165-4.055 2.317-6.152 3.266 0 .851.032 1.662-.01 2.47-.042.818-.15 1.633-.14 2.507.538-.334 1.038-.628 1.523-.946 1.42-.93 2.832-1.87 4.25-2.8a.39.39 0 0 0 .196-.331c.062-.72.143-1.438.212-2.157.063-.668.12-1.336.181-2.005-.022-.002-.046-.012-.06-.004Zm-1.335 3.346c-.77.454-1.543.906-2.398 1.192-.147.05-.282.138-.42.214-.293.16-.517.142-.696-.06a.641.641 0 0 1-.04-.792c.195-.277.476-.45.771-.58.332-.147.497-.364.459-.729-.013-.123.048-.208.153-.263.13-.069.257-.142.392-.2.198-.086.405-.153.602-.24.166-.075.31-.07.421.08.097.13.204.12.338.074a2.72 2.72 0 0 1 .427-.11c.37-.064.59.124.593.495-.002.436-.262.72-.602.92Zm1.35-4.463a.81.81 0 0 1-.241-.704c.032-.293.077-.585.116-.878.039-.293.114-.587.106-.878-.013-.422-.095-.841-.13-1.263a.703.703 0 0 0-.296-.522 5.513 5.513 0 0 0-.592-.388c-.267-.154-.539-.117-.777.061a12.3 12.3 0 0 0-.823.672c-.568.507-1.174.896-2.007.734l-.353.782c.41.229.798.421 1.162.654 1.046.668 2.08 1.353 3.121 2.029.238.154.481.299.734.455.029-.062.04-.1.061-.13.162-.233.126-.428-.08-.623Zm-.184.893c-.228-.14-.438-.263-.643-.395-1.219-.782-2.43-1.577-3.659-2.345a5.461 5.461 0 0 0-1.092-.507c-.463-.161-.946-.265-1.42-.396-.806-.223-1.612-.444-2.416-.672-.3-.085-.593-.189-.879-.28l-.36.843c.06.027.148.07.238.106.628.256 1.255.511 1.883.764.264.106.532.205.798.307.349.134.702.258 1.046.403.47.2.935.415 1.402.623.216.096.439.18.648.287.721.371 1.48.64 2.257.863.596.17 1.197.32 1.795.485.143.04.27.05.402-.086ZM7.22 10.349c-.006-.178-.068-.267-.212-.344-.565-.303-1.124-.615-1.686-.923-.031-.016-.069-.02-.103-.03-.137.417-.281.811-.68 1.034l-.137 2.709 2.877 1.98a12.57 12.57 0 0 0 .06-2.235c-.042-.73-.092-1.46-.118-2.191ZM2.296 1.137c.099.034.14.054.184.063l1.703.36c.538.116 1.084.2 1.575.476.108.062.238.091.363.117.8.163 1.603.312 2.401.485.39.085.766.096 1.164.042.844-.114 1.47-.546 1.971-1.232-.427-.07-.84-.147-1.255-.202-.644-.085-1.292-.14-1.934-.237C8.012.94 7.565.815 7.112.726 6.137.534 5.16.354 4.186.158c-.159-.033-.273-.032-.394.096-.352.375-.795.608-1.272.783-.058.022-.114.05-.224.1Zm.876 8.46c-.066-.14-.134-.279-.19-.423-.055-.144-.078-.303-.147-.439a.73.73 0 0 1-.076-.512c.035-.161.037-.33.054-.502-.598-.309-1.137-.687-1.774-.947l.05 1.098c.043.908.09 1.815.124 2.723.007.172.08.265.217.349.504.308 1.002.625 1.504.937.046.03.1.047.153.07.094-.348.234-1.797.195-2.13-.009-.077-.075-.148-.11-.224Zm5.463 1.253c-.379-.182-.756-.369-1.151-.562 0 .282-.017.53.003.774.09 1.113.151 2.225.05 3.34a3.021 3.021 0 0 0-.008.445c.003.06.033.139.078.175.321.258.65.506 1.008.783.004-.115.006-.21.011-.303.023-.464.02-.93.074-1.39.121-1.015.063-2.031.058-3.048 0-.099-.03-.168-.123-.213Z"/><path fill="#000" fill-rule="nonzero" d="M4.785 9.487a.103.103 0 0 1 .029-.051c.156-.154.16-.348.161-.538-.677-.496-1.61-.99-1.93-1.018-.007.108.006.221-.025.322-.056.19-.003.34.09.503.066.115.076.261.119.39.036.11.055.25.133.315.144.12.166.266.158.424-.024.434-.052.868-.091 1.3-.03.325-.08.647-.121.982l.922.595.105-2.843c.238-.02.406-.13.45-.38Zm9.756-1.8c-.076-.038-.107-.062-.142-.07-.314-.084-.629-.165-.943-.246-.381-.1-.767-.181-1.142-.3-1.168-.369-2.255-.93-3.369-1.429a19.01 19.01 0 0 0-.985-.399c-.496-.19-.995-.372-1.494-.554-.09-.033-.192-.088-.279-.075-.237.037-.47.106-.708.162.137.35.464.314.713.418.022.009.057-.005.084-.015.492-.182.896-.03 1.25.325.397-.035.75.088 1.083.303.177.114.316.235.272.458l.486.306c.528-.225.86-.137 1.237.319.25.03.487.048.718.09.206.037.4.108.485.337.017.045.08.095.128.102.217.03.38.145.538.288.06.055.155.077.237.1.306.088.598.2.833.452l.998-.572ZM.824 6.843C.821 6.771.8 6.666.751 6.635c-.205-.13-.415-.258-.682-.283-.01.062-.025.108-.025.154.015.87.026 1.74.051 2.609.009.285.054.57.086.854.006.058.014.12.042.17.048.087.608.406.724.43-.02-.657-.038-1.317-.06-1.978C.87 8.01.85 7.426.824 6.843Zm9.468-4.11c-.147.045-.297.08-.446.12a6.5 6.5 0 0 0 .987.294c.12.026.263.02.378-.02.247-.089.51-.173.72-.323.446-.32.864-.68 1.292-1.025.009-.007.003-.033.005-.084l-1.19-.215c-.282.25-.519.43-.719.645-.286.31-.637.488-1.027.608Zm-1.375.212c-1.023-.217-2.017-.428-3.008-.64l-.178.514c.422.198 2.529.765 2.94.785l.246-.659ZM1.422 6.68c.058-.292.233-.41.467-.425.223-.014.448.01.698.018.14-.272.418-.35.705-.357l.156-.53c-1.009.254-1.99.467-3.017.809l.991.484Zm2.465-3.372.16-.688c-1.052-.3-2.092-.595-3.132-.89.32.33 2.662 1.544 2.972 1.578ZM1.484 1.124l-.282.486 2.319.66.211-.577-2.248-.569Zm6.721 7.783c.321.048.649.063.96-.071.163-.071.278-.236.257-.364-.027-.158-.157-.235-.29-.26-.21-.04-.427-.05-.642-.063-.278-.018-.5.08-.644.333.074.18.136.391.36.425ZM4.877 6.568c.2.286.402.575.777.51.092 0 .142.005.19 0 .214-.025.32-.122.335-.303.018-.218-.092-.426-.26-.485l-.549-.194c-.139-.05-.305-.015-.391.11-.073.105-.213.204-.102.362Zm4.239-3.612-.286.71c.416.12.807.234 1.214.35l.344-.76c-.445-.106-.844-.2-1.272-.3ZM4.764 7.043c.119-.182-.013-.334-.107-.483-.221-.031-.414-.064-.609-.085a1.778 1.778 0 0 0-.32-.004c-.11.008-.217.033-.263.155-.051.133.02.226.097.32.184.223.431.303.707.303.19 0 .384-.035.495-.206ZM2.441.864c.441-.195.887-.375 1.218-.78-.268-.105-.503-.135-.75.05-.422.319-.918.486-1.415.648-.047.016-.093.039-.156.066.386.186.738.177 1.103.016Zm4.105 8.198c.163.063.34.088.54.138.162-.046.345-.08.514-.15.147-.061.195-.188.145-.313-.05-.126-.134-.211-.286-.214a2.86 2.86 0 0 1-.464-.038.569.569 0 0 0-.532.182c-.148.148-.116.318.083.395ZM3.681 6.028c.213.183.47.233.708.268.197.008.339-.063.392-.19a.272.272 0 0 0-.129-.356c-.23-.12-.48-.202-.724-.292-.04-.014-.097.005-.143.02a.336.336 0 0 0-.237.276c-.021.121.046.199.133.274Zm1.596-1.082c-.347-.055-.697-.09-1.046-.116-.06-.005-.157.064-.177.12-.019.054.024.149.068.202.21.255.496.333.813.334.097-.008.2 0 .29-.03.124-.04.22-.129.233-.274a.215.215 0 0 0-.181-.236Zm6.041 3.946c-.017-.12-.075-.206-.198-.228-.135-.024-.271-.038-.395-.055-.142.016-.269.028-.395.045a.495.495 0 0 0-.142.04c-.209.098-.251.324-.085.44.241.17.84.182 1.08.028.103-.066.152-.147.135-.27ZM7.442 7.124c.174-.024.348-.057.519-.1.145-.035.204-.151.202-.29-.002-.13-.074-.218-.196-.269a.985.985 0 0 0-.662-.047c-.174.049-.34.098-.415.317.14.12.263.234.393.336a.24.24 0 0 0 .16.053Zm-1.9-4.428c.193-.43.185-.497-.177-.628a8.369 8.369 0 0 0-1.102-.304c-.265-.056-.385.045-.51.362l.37.168c.229-.271.356-.301.658-.192.22.08.203.26.18.469l.58.125Zm6.941 6.037c.023-.175-.066-.312-.21-.39a1.527 1.527 0 0 0-.89-.19l-.159.326c.1.082.183.171.284.225.204.11.418.2.663.316.117-.038.285-.083.312-.287Zm-3.3-1.359c-.215.025-.267.094-.278.325-.003.077-.008.154-.013.24.13.04.262.057.366.121.243.151.434.043.616-.1.201-.158.184-.343-.036-.47a1.041 1.041 0 0 0-.655-.116Zm-.893-.949c.124.265.061.495-.06.714l.54.195c.083-.04.16-.08.24-.119.27-.129.32-.386.095-.583-.225-.195-.495-.255-.815-.207Zm1.68 3.721a10.3 10.3 0 0 0 .867-.433c.041-.023.069-.113.062-.168-.004-.039-.073-.093-.118-.1-.116-.016-.238.008-.352-.014-.28-.055-.52.029-.743.167l-.06.536c.12.006.25.052.343.012ZM3.32 6.983c-.208-.139-.692-.019-.888.247a6.98 6.98 0 0 0 1.222.582c.141-.29.005-.602-.334-.83Zm4.865 1.005c.076-.017.155-.017.233-.027.13-.015.258-.033.29-.195.03-.148-.033-.268-.22-.333-.3-.105-.61-.147-.92-.036-.076.028-.148.066-.23.103l.658.55c.041-.013.113-.045.189-.062Z"/><path fill="#000" fill-rule="nonzero" d="M11.37 7.198a1.88 1.88 0 0 0-.687-.092c-.087.11-.143.202-.22.273-.074.07-.168.119-.254.177.307.036.586.07.845.216.134.075.268.032.387-.052.1-.07.18-.155.167-.292-.013-.146-.123-.195-.237-.23Zm-6.302.929c.497.312 1.087.293 1.339-.02-.109-.215-.231-.39-.523-.381-.333.01-.606.099-.816.401Zm5.837.281c.08-.01.19-.104.21-.18.018-.069-.047-.19-.111-.245-.204-.178-.455-.219-.718-.189a.169.169 0 0 0-.097.056c-.107.124-.21.252-.32.385.313.262.678.217 1.036.173Zm-2.685 1.73c.127-.099.243-.226.193-.4a.351.351 0 0 0-.184-.205c-.294-.114-.727.032-.976.322.198.114.394.222.585.338.146.088.27.032.381-.055Zm-1.27-2.46-.46.086c.039.11.07.212.112.31.018.04.052.088.091.105.226.099.454.202.71.156a.497.497 0 0 0 .24-.095c.044-.04.068-.15.045-.204-.077-.183-.537-.394-.738-.358ZM5.7 5.302l-.343.373c.134.29.399.41.783.362.105-.013.19-.047.226-.157.037-.113.031-.213-.056-.302-.171-.174-.362-.302-.61-.276Zm.652 1.712c-.166.205-.373.273-.644.365.078.046.15.106.234.134.1.035.21.052.316.058.27.017.528-.038.764-.168.124-.067.133-.167.037-.267a.48.48 0 0 0-.187-.14c-.174-.047-.384-.15-.52.018Zm2.946 3.053c.156-.09.195-.18.167-.34-.028-.16-.148-.208-.277-.21-.183-.001-.367.026-.54.04l-.104.6c.264.008.519.047.754-.09Zm.916-3.271c-.238-.155-.49-.165-.754-.065l-.03.412c.179.062.336.112.49.171.166.065.39.001.458-.138.047-.1-.027-.292-.164-.38ZM6.127 9.095l.143-.61c-.384.134-.773.054-1.164-.044-.039-.01-.097.06-.193.124.362.205.672.39.994.554.067.033.177-.019.22-.024ZM5.57 7.526c-.086-.312-.401-.26-.536-.409l-.563.4.593.364.505-.355Zm-.77-5.23-.421-.065-.3 1.038c.332.169.422.162.491-.057.091-.286.149-.584.23-.916ZM1.739 6.84c.154.097.319.177.453.25l.428-.365c-.16-.27-.649-.38-.896-.202-.113.08-.112.237.015.317Zm3.034 1.108c-.207-.158-.44-.25-.709-.206-.104.017-.189.05-.194.194l.858.51c.19-.219.203-.378.045-.498Zm2.154-2.08c-.147.043-.21.16-.174.262.039.11.183.196.303.174.248-.045.495-.094.792-.15-.025-.066-.03-.155-.073-.179a1.063 1.063 0 0 0-.848-.107Zm5.823 2.836.6-.339a1.206 1.206 0 0 0-.753-.358c-.086-.005-.175.027-.263.043l-.007.08c.256.093.348.311.424.574Zm-2.852.564c-.125-.158-.101-.42-.338-.46l-.64.343c.01.086.055.152.181.156a.649.649 0 0 1 .287.053c.2.11.35.036.51-.092ZM1.31 1.059C.594.81.742.786.306 1.316l.707.262.295-.52Zm1.862 5.068c-.225.002-.426.172-.424.333 0 .145.17.248.46.262.061-.215.14-.406.393-.437-.108-.191-.28-.16-.429-.158ZM8.76 9.356c-.082-.216-.082-.21-.232-.232-.189-.026-.377-.063-.57-.095l-.434.356c.316-.05.62-.112.928.013.082.034.201-.025.309-.042ZM6.414 5.312l.238.469.62-.202-.006-.082c-.257-.152-.523-.264-.852-.185Zm1.6 1.002.728-.176c-.324-.236-.6-.413-.97-.41.254.108.31.307.242.586ZM7.3 9.501c-.102-.155-.232-.084-.339-.105a14.179 14.179 0 0 0-.371-.069c-.104-.018-.194-.132-.362-.032l.84.466.232-.26Zm3.9.023c.242-.114.488-.224.755-.414l-.46-.228c.018.36-.254.397-.53.559.116.043.193.102.234.083Zm-2.282.839c-.215-.021-.433-.008-.65-.008.108.123.236.186.351.267.184.129.342.1.54-.093-.093-.068-.163-.159-.24-.166ZM6.423 6.717l.252.015.117-.231-.35-.325-.163.104.144.437Zm5.772 1.203.107-.12c-.358-.249-.494-.22-.72.146l.506.095.107-.122Zm-2.585.701.22.136.134-.2-.355-.27v.334Zm-.024 1.737c-.198-.15-.198-.15-.338.021.13.188.217.026.338-.021ZM5.187 5.862c-.023-.176-.12-.18-.246-.14.02.178.104.21.246.14ZM3.912 7.485c.128.14.259.052.38.038-.115-.043-.229-.11-.38-.038ZM13.96 9.779c-.125.012-.254.04-.372.086-.273.106-.519.12-.709-.18-.212.086-.395.159-.576.234-.189.078-.377.159-.547.231-.02.206-.04.373-.053.54-.014.165-.097.267-.25.334a4.035 4.035 0 0 0-.55.285c-.147.094-.287.21-.404.34-.12.133-.094.353.026.489.101.114.207.118.401.02.167-.085.33-.184.505-.244.826-.28 1.567-.733 2.319-1.16.269-.151.485-.38.47-.734-.008-.172-.092-.258-.26-.241Z"/></g></svg>