<svg xmlns="http://www.w3.org/2000/svg" width="3.063em" height="1em" aria-hidden="true" viewBox="0 0 49 16"><path fill-rule="evenodd" d="M10.252 7.607.047 5.822l10.205.729V4.194c0-.686.558-1.243 1.242-1.243h29.75L48.156 0s-2.437 1.706-2.437 3.184c0 1.479 2.437 3.185 2.437 3.185l-6.678-2.852-.014.007s-1.051.128-3.96 3.711c-2.579 3.178-7.703 4.794-12.726 5.604l.493 1.858-2.3-1.6a58.72 58.72 0 0 1-.898.107l-.89 2.713-1.031-2.53-.288.022c-4.11.311-7.452.191-8.208.157l-.161-.008a1.297 1.297 0 0 1-1.241-1.248v-.07l1.158-.128c1.76-.198 4.9-.573 4.9-.727 0-.186-4.586-.049-5.778-.01l-.28.01V7.607Zm5.515 1.869a.388.388 0 1 0 0 .776.388.388 0 0 0 0-.776Z"/></svg>