<svg xmlns="http://www.w3.org/2000/svg" width=".688em" height="1em" aria-hidden="true" viewBox="0 0 11 16"><path d="M.996 9.04a2.591 2.591 0 0 1-.462.04A.524.524 0 0 0 0 9.6c-.004.29.23.53.52.533.42.006.837-.063 1.271-.21a.291.291 0 0 1 .299.067c.42.41.894.71 1.353 1 1.071.68 1.918 1.215 1.985 2.808l-.001.2c-.004.411-.013 1.363.015 1.95h1.054v-.02a16.68 16.68 0 0 1-.014-1.322v-.02c.014-1.067.935-1.6 1.834-1.98.867-.366 1.669-1.013 1.915-1.402l.004-.005c.241-.366.403-.788.495-1.29a.519.519 0 0 0-.085-.394.522.522 0 0 0-.734-.133.524.524 0 0 0-.218.338c-.218 1.201-.925 1.523-1.82 1.93-.152.07-.324.147-.494.233a.293.293 0 0 1-.41-.348c.214-.692.481-1.317.74-1.921.723-1.685 1.471-3.428 1.298-6.784a.527.527 0 0 0-1.052.054c.05.95.024 1.796-.078 2.585a.294.294 0 0 1-.528.134A8.497 8.497 0 0 0 6.862 5a.52.52 0 0 0-.36-.18.528.528 0 0 0-.433.872c.729.835 1.34 1.778.884 3l-.136.324-.304.722a.293.293 0 0 1-.55-.027c-.38-1.226-.899-2.156-1.4-3.055-.289-.518-.588-1.053-.851-1.64a.297.297 0 0 1-.002-.235c.207-.481.544-.906.902-1.356.346-.434.703-.883.966-1.423l.005-.013a.526.526 0 1 0-.945-.458l-.001.002-.004.008c-.204.422-.501.796-.846 1.23l-.244.31a.295.295 0 0 1-.295.105.291.291 0 0 1-.222-.22A14.456 14.456 0 0 1 2.705.5.523.523 0 0 0 2.15 0a.521.521 0 0 0-.498.553c.014.286.035.57.062.846a.293.293 0 0 1-.306.32 2.643 2.643 0 0 1-.702-.128.528.528 0 0 0-.335.999c.405.136.827.197 1.292.187a.292.292 0 0 1 .293.232C2.338 4.828 3 6.018 3.642 7.168c.508.91.988 1.771 1.343 2.953a.293.293 0 0 1-.445.326 19.03 19.03 0 0 0-.534-.346c-.841-.533-1.568-.993-1.856-1.98a4.103 4.103 0 0 1-.112-.36.527.527 0 0 0-1.018.27c.068.255.13.448.197.609a.293.293 0 0 1-.221.4Z"/></svg>