<svg xmlns="http://www.w3.org/2000/svg" width=".75em" height="1em" aria-hidden="true" viewBox="0 0 12 16"><path d="M3.322.533c1.615 0 2.945 1.277 2.945 2.855 0 1.579-1.307 2.879-2.922 2.879C1.73 6.267.4 4.99.4 3.412.377 1.833 1.683.533 3.322.533Zm1.757 1.138c.404.835.57 1.648.546 2.553.333-.812.072-1.996-.546-2.553Zm6.654 7.219c0 1.37-1.142 2.466-2.512 2.443a2.451 2.451 0 0 1-2.42-2.49c0-1.37 1.141-2.465 2.511-2.443 1.348 0 2.444 1.12 2.421 2.49Zm-.48.525c.229-.548.023-1.553-.365-1.896.114.594.251 1.28.365 1.896Zm.347-7.226a1.15 1.15 0 0 1-1.133 1.144 1.13 1.13 0 0 1-1.134-1.122 1.15 1.15 0 0 1 1.134-1.144c.601 0 1.11.503 1.133 1.122ZM4.867 14.4c-.625 0-1.134-.5-1.134-1.088 0-.588.532-1.045 1.134-1.045.624 0 1.133.5 1.133 1.088 0 .588-.509 1.045-1.133 1.045ZM.478 0c.26 0 .455.195.455.456 0 .26-.217.477-.477.477A.463.463 0 0 1 0 .456.493.493 0 0 1 .478 0Zm7.655 15.534a.468.468 0 0 1-.476.466.456.456 0 0 1-.456-.488c.022-.266.217-.466.477-.444.26 0 .455.222.455.466Z"/></svg>