<svg xmlns="http://www.w3.org/2000/svg" width=".412em" height="1em" aria-hidden="true" viewBox="0 0 7 17"><path d="M4.664 5.333v-1.92a.94.94 0 0 0 .403-.772.954.954 0 0 0-.935-.948L4.28.375H2.144l.148 1.318a.954.954 0 0 0-.935.948c0 .318.159.601.403.774v1.918A2.529 2.529 0 0 0 .347 7.608v7.123c0 1.055 1.486 1.536 2.865 1.536 1.38 0 2.864-.48 2.865-1.536V7.608a2.53 2.53 0 0 0-1.413-2.275Zm.844 9.398c0 .537-1.028.971-2.296.971-1.267 0-2.295-.435-2.295-.971V7.608c0-.893.595-1.647 1.413-1.895V3.026h-.014a.387.387 0 0 1-.39-.386c0-.212.175-.385.39-.385h1.793c.215 0 .389.173.389.385a.387.387 0 0 1-.389.386h-.014v2.686a1.986 1.986 0 0 1 1.413 1.896v7.123Z"/><path d="m4.33 10.744-.097-.04.085-.05a.282.282 0 0 0 .104-.384.28.28 0 0 0-.382-.104l-.176.102.494-2.955a.182.182 0 0 0-.179-.213H2.09a.182.182 0 0 0-.179.212l.544 3.256a.277.277 0 0 0-.067.176c0 .067.027.127.066.176l-.543 3.21a.181.181 0 0 0 .179.213h2.097a.182.182 0 0 0 .163-.262l-.495-2.926.26.108a.277.277 0 0 0 .366-.152.282.282 0 0 0-.15-.367Zm-.365-3.279-.501 2.998h-.66l-.502-2.998h1.663ZM2.303 13.98l.5-2.953h.661l.5 2.953h-1.66Z"/></svg>