<svg xmlns="http://www.w3.org/2000/svg" width="1.18em" height="1em" aria-hidden="true" viewBox="0 0 20 17"><path d="M5.121 2.506c-.673.035-1.309.067-1.757.43-.394.319-.509.886-.63 1.486-.091.456-.187.926-.412 1.338 1.132 3.511 2.8 7.35 6.05 10.666-.924-3.68-2.328-9.514-2.47-13.978-.26.032-.522.045-.78.058ZM1.873 6.368c-.193.21-.407.405-.617.595-.505.458-.983.89-1.06 1.456-.105.77.417 1.838 1.51 3.09 1.518 1.739 3.751 3.417 5.352 4.404-2.651-3.035-4.14-6.405-5.185-9.545Zm10.41-3.993c-.492-.179-.92-.502-1.332-.814-.537-.407-1.046-.79-1.622-.8-.519 0-.965.356-1.438.733-.377.302-.767.613-1.226.78-.05.018-.1.034-.151.049.123 4.52 1.601 10.566 2.525 14.23 1.378-3.93 2.422-8.476 3.254-14.175l-.01-.003Zm1.404 14.024c.751-.102 1.405-.583 1.405-1.257v-1.346c-1.479 1.173-3.106 2.224-4.341 2.89a37.895 37.895 0 0 0 2.936-.287Zm3.088-9.98a2.432 2.432 0 0 1-.253-.354c-.262-.454-.381-.976-.497-1.48-.15-.658-.293-1.279-.728-1.657-.383-.333-.962-.347-1.574-.362a8.069 8.069 0 0 1-.828-.05c-.82 5.603-1.846 10.105-3.193 14.008 3.16-2.886 5.532-6.274 7.073-10.105ZM3.539 15.232c.012.675.62 1.13 1.372 1.238a26.97 26.97 0 0 0 2.276.226c-1.061-.61-2.41-1.544-3.669-2.597l.02 1.133Z"/><path d="M18.472 8.4c-.036-.497-.483-.877-.957-1.279a17.16 17.16 0 0 1-.268-.23c-1.303 3.154-3.163 6.01-5.553 8.538 1.678-1.037 3.75-2.537 5.195-4.09 1.09-1.17 1.637-2.187 1.583-2.94Z"/></svg>