<svg viewBox="0 0 317 44" xmlns="http://www.w3.org/2000/svg" aria-labelledby="title-boston-globe"><title>The Boston Globe</title><path d="M292.294 26.857c0 3.096-.142 9.155-.142 9.367l-.21.21-5.85-3.66V18.403c.917-1.408 2.185-2.114 3.312-2.114 1.338 0 2.325.986 2.816 2.325 0 .564.074 4.298.074 8.244zm19.3-5.847l-5.425 4.437V15.374l5.425 5.636zm-14.37 12.75c-.353-3.17-.28-11.765-.28-15.78 0-2.606-2.256-4.51-5.076-5.707l-5.775 4.86V6.567c0-1.76 1.056-3.664 2.323-3.664V2.55c-2.745 0-5.773 2.186-6.27 3.595-.63-1.058-2.11-1.693-3.518-1.693l-.073.563c1.41 0 2.748 2.398 2.748 6.626 0 8.522-.07 16.696-.07 20.214 0 1.13-.142 1.905-.777 2.82l8.667 5.28c3.31-3.093 4.577-4.01 8.1-6.193zm19.092-1.338l-.426-.426c-2.182 2.185-3.452 3.1-4.718 3.1-1.27 0-2.467-.775-5.003-2.746v-5.777l9.933-7.96c-2.326-1.973-7.115-6.764-7.115-6.764-2.678 2.397-4.227 3.735-7.96 6.34.14.775.282 1.83.282 2.677V32.07c0 .774-.07 1.337-.355 2.252l7.82 5.492 7.54-7.392zm-92.638-4.438c0 1.9-.565 3.097-1.832 4.085-2.887-2.82-4.296-6.764-4.296-10.71 0-5.915 2.04-8.173 4.86-10.214a13.91 13.91 0 011.268-.915v17.754zm7.608 8.098c-3.733-.28-6.62-1.548-8.875-3.45 3.45-2.395 5.635-3.59 5.635-7.26V7.13l1.058-.843c.776.28 1.41.56 2.183.843v28.952zm10.99-8.312c0 2.046-.21 3.453-.774 5.147-2.044 2.038-5.076 3.237-8.524 3.237h-.988V18.05c.635-.07 1.2-.14 1.762-.14 5.074 0 8.524 4.577 8.524 9.86zm-2.748-16.694l-7.537 6.692V7.413c2.68 1.057 5.074 2.325 7.538 3.663zm32.545 24.658l-.42.278-5.988-3.804V15.374l6.34 3.098.068 17.262zM246.998 5.016l-.637-.563-2.32 2.466s-5.992-1.973-10.85-4.79c-6.692 5.07-11.764 8.663-18.317 13.315-1.55 2.322-2.395 5.35-2.395 8.663 0 9.014 8.312 16.058 18.808 16.058 6.833-2.885 11.696-6.902 15.288-11.762.21-.984.28-2.395.28-3.17 0-6.552-4.437-10.213-9.157-11.34l9.3-8.878zm30.29 10.92l-8.454-4.365c-2.607 2.394-5.142 4.154-8.523 5.844.21.637.424 3.243.424 4.864v11.625c-.774.842-1.554 1.27-2.327 1.27-.773 0-1.62-.355-2.676-1.13V5.864c0-1.62.987-3.523 2.256-3.523v-.208c-2.607 0-4.933 1.195-5.634 3.166-.637-1.055-1.62-1.972-3.1-1.972l-.072.283c.845 0 1.693 2.393 1.693 4.646V30.87c0 2.185-.283 3.312-1.127 4.51l5.633 4.087 5.282-4.58 8.172 4.927c3.1-2.885 4.934-4.577 8.383-6.618-.21-1.058-.28-3.1-.28-3.947v-10c-.003-1.694.07-2.61.35-3.314zm-133.776 20.36c-2.045-1.835-4.86-3.38-9.37-3.38l6.905-7.327 2.394 2.11.072 8.596zm2.323-16.977l-5.915 6.406-2.608-1.9V15.3c2.68 1.83 4.226 2.818 8.523 4.017zm29.093 17.114l-.28.215-5.635-3.454v-17.61l5.915 3.52v17.328zm5.495-2.606c-.28-.91-.35-1.832-.35-2.674V16.36l-7.68-4.298c-2.464 2.465-5.285 4.227-8.875 6.2.21.703.353 1.83.353 2.606v12.467c-1.126 1.2-2.256 1.903-3.24 1.903-.987 0-1.97-.42-3.03-1.547 0-.986.07-11.695.07-18.244h5.495v-1.34l-5.495-.21s.07-5.144.14-6.202h-.63l-7.682 8.103c-3.31-.493-5.774-1.69-9.37-4.155-2.815 2.885-4.718 4.223-8.098 5.845.14 1.692.21 2.607.21 4.298 0 1.972 0 2.605-.14 4.3l4.507 3.165-4.227 4.44c-1.83 1.904-2.535 3.452-2.535 5 0 1.41.565 2.535 1.408 3.594l.494-.28c-.565-.847-.918-1.835-.918-2.746 0-1.48.775-2.75 2.958-2.75 2.185 0 4.58 1.408 6.975 3.308 2.677-2.464 4.65-4.08 7.608-5.56V27.07c0-.847.07-1.2.284-1.763l-4.51-3.028 5.778-6.272h2.676c0 6.41-.07 14.653-.07 15.57 0 1.126-.212 2.536-.986 3.662l6.41 4.718 5.496-5 7.96 5.212c3.102-2.887 5.565-4.79 9.015-6.342zm25.574.99l-.492-.564-2.398 2.04c-1.197 0-2.042-.844-2.042-2.182 0-1.196.073-15.148.142-17.542-.916-1.834-2.116-3.24-4.79-4.157l-6.413 4.72c0-1.972-1.126-3.734-3.31-4.86l-3.734 3.17 1.975 2.11s-.072 12.4-.072 14.442c0 2.048-1.478 3.526-1.478 3.526l5.845 4.293 3.1-3.8-2.326-2.112V18.4c1.13-1.477 2.327-2.113 3.386-2.113 1.195 0 2.18.845 2.463 2.045.072.915.072 2.395.072 3.945 0 2.395 0 10.845-.072 14.155.422 1.48 2.607 3.523 4.016 3.523l6.127-5.138zM102.863 24.32l-.14 10.14c-1.056.568-1.76.92-2.747 1.622-.774-.49-1.55-.985-2.465-1.548V21.432l5.353 2.888zm.776-8.805c0 1.547-1.41 2.324-6.13 5.282V16.29c0-2.256.14-3.522.21-4.44h-.984c.14.986.212 2.184.212 4.44v17.965c-2.96-1.763-6.553-3.595-10.358-3.876 3.594-2.044 7.186-4.79 7.186-8.81v-8.803c0-2.82 1.127-4.51 4.087-7.045 2.323 3.45 3.242 4.93 5.07 8.03.425.704.706 1.41.706 1.763zm19.935 20.78l-.28.213-5.567-3.384v-17.82l5.847 3.31v17.682zM94.412 4.526l-.14-.424c-2.96 0-4.58-.353-6.13-.633-1.48-.21-2.75-.493-4.51-.493-4.65 0-7.68 2.396-7.68 6.27 0 1.62.353 2.535 1.41 3.734l.422-.423c-.564-.706-.844-1.41-.844-2.185 0-1.69 1.41-3.17 4.508-3.17 2.326 0 4.438.424 6.27.847-3.945 2.886-6.342 5-6.342 11.13-.563-.212-1.34-.352-2.394-.352-2.96 0-4.508 1.97-4.508 3.872 0 .848.21 1.765.775 2.397l.492-.28c-.212-.425-.353-.847-.353-1.27 0-1.267.985-2.254 2.817-2.254 1.62 0 2.818.704 3.38 1.693 0 4.296-.844 6.48-3.097 6.48v.49c3.38 0 7.466-2.463 7.466-6.408v-7.89c.002-6.483 3.805-9.51 8.456-11.13zm14.722 17.822l-6.27-4.156c2.395-1.478 3.17-1.902 4.015-2.535 1.48-1.057 1.902-1.69 1.902-2.325 0-.494-.212-1.41-1.338-3.1-1.41-2.113-2.747-4.156-5.565-8.1-3.947 2.678-6.13 4.294-10.286 7.538-1.69 1.336-2.96 3.45-2.96 6.127 0 .917.072 5.637.072 8.737 0 2.394-.424 3.664-2.96 5.774-6.127 0-9.79 3.95-9.79 7.892 0 1.692.563 3.453 1.83 4.858l.424-.42c-.776-.85-1.408-2.185-1.408-3.734 0-2.115 1.55-4.44 6.41-4.44 5.353 0 10.354 3.665 13.242 5.427 4.157-3.524 6.764-5.004 12.117-6.767v-8.946c0-.632.212-1.266.564-1.83zm20.147-6.13l-8.1-4.438c-2.466 2.467-5.634 4.438-9.227 6.41.49 1.48.35 3.38.35 5.777 0 5.848.07 9.018-.985 10.567l8.947 5.496c2.465-2.538 5.142-4.508 8.735-6.48-.28-.918-.353-1.833-.353-2.68v-10c0-2.958.283-4.014.634-4.65zM11.075 27.21c0 2.112-.353 3.38-1.48 4.365C6.99 28.9 5.58 25.095 5.58 20.797c0-2.395.423-4.225 1.267-5.494 1.41-1.27 3.1-2.467 4.227-3.1v15.004zm8.03 8.872c-3.52-.422-6.55-1.76-8.806-3.8 4.368-3.17 5.353-5.004 5.353-8.526V9.454l.142-.14c1.41.14 2.186.21 3.313.282v26.486zM61.373 21.08l-5.705 4.577v-9.862l.21-.21 5.495 5.494zm4.437 11.34l-.423-.426c-2.254 2.4-3.24 3.032-4.93 3.032-1.27 0-2.748-.774-4.79-2.678v-5.777l10.143-7.747-6.903-6.835c-3.03 2.395-3.523 2.82-5.707 4.51-1.197.914-1.9 1.34-2.677 1.69.14.845.28 2.044.28 2.89v12.89c-1.194 1.127-2.323 1.622-3.167 1.622-1.128 0-1.973-.706-1.973-1.903V16.43c-.704-2.184-2.042-3.594-4.648-4.51l-6.413 5.213V5.016c0-1.76.988-3.38 1.903-3.803V1c-2.606 0-4.438 1.693-5.212 3.666L30.166 2.34l-.424.07v30.997c-2.536 1.338-5.283 2.817-8.313 2.817-.563 0-1.057 0-1.62-.07V9.668c1.337.14 2.184.21 2.958.21 1.196 0 1.973-.21 2.536-.493l3.453-7.045-.565-.14c-1.34 2.677-2.04 3.098-4.93 3.098-1.338 0-4.297-.35-7.257-.703-2.818-.352-5.707-.704-7.184-.704-4.367 0-6.904 3.03-6.904 6.13 0 1.267.422 2.536 1.27 3.664l.49-.353c-.562-.704-.914-1.62-.914-2.396 0-1.266.986-2.393 3.663-2.393 1.058 0 4.79.355 8.313.633-4.016 1.974-7.325 4.087-11.2 7.045C1.846 18.473 1 21.36 1 24.32c0 7.61 5.778 15.85 18.53 15.85 3.733-2.11 9.228-5.28 9.228-5.28l5.07 4.58 3.523-3.455-2.747-2.89v-14.72c1.197-1.62 2.537-2.325 3.595-2.325 1.196 0 2.324.846 2.606 2.395v17.68c.422 1.482 2.182 2.888 3.945 3.38l6.268-4.716 7.257 4.997 7.535-7.392z"/></svg>