<svg xmlns="http://www.w3.org/2000/svg" width=".75em" height="1em" aria-hidden="true" viewBox="0 0 12 16"><path d="M.011 5.963c0-1.579.647-3.122 1.797-4.27A5.554 5.554 0 0 1 5.761.043h.108c3.127.108 5.642 2.655 5.642 5.776v.36A2.16 2.16 0 0 1 9.355 8.33H2.168A2.16 2.16 0 0 1 .012 6.178v-.215Z"/><path d="M3.252 15.956c-.273 0-.59-.098-.919-.397a.27.27 0 1 1 .365-.4c.31.283.617.33.936.143a.614.614 0 0 0 .282-.378.454.454 0 0 0-.052-.356 3.414 3.414 0 0 0-.48-.608 3.519 3.519 0 0 1-.347-.355c-2.388-2.95.193-5.446.219-5.47a.27.27 0 1 1 .373.393c-.093.087-2.24 2.18-.17 4.737.066.08.2.214.286.29.16.142.392.433.576.722a.992.992 0 0 1 .122.774c-.072.299-.267.56-.535.717-.153.09-.382.188-.656.188Zm5.122-1.062a1.16 1.16 0 0 1-.581-.167 1.024 1.024 0 0 1-.476-.638.89.89 0 0 1 .109-.692c.16-.25.36-.501.5-.625.072-.065.184-.176.24-.245 1.754-2.167-.063-3.926-.141-4a.271.271 0 0 1 .372-.393c.023.022 2.256 2.181.19 4.733a3.13 3.13 0 0 1-.3.309 2.897 2.897 0 0 0-.404.512.351.351 0 0 0-.04.274.49.49 0 0 0 .224.299c.26.152.5.115.754-.118a.271.271 0 0 1 .365.4c-.29.265-.57.35-.812.35Zm-2.337-.898c-.251 0-.5-.104-.724-.307a.27.27 0 1 1 .365-.4c.202.184.39.214.593.095a.371.371 0 0 0 .171-.228.258.258 0 0 0-.029-.202 2.417 2.417 0 0 0-.335-.426 2.669 2.669 0 0 1-.26-.267c-1.423-1.758-.514-3.436.165-4.077a.271.271 0 0 1 .373.393c-.065.062-1.576 1.54-.117 3.344.045.056.139.149.2.203.12.106.294.324.432.54.116.182.15.402.098.619a.91.91 0 0 1-.423.568 1 1 0 0 1-.509.145Z"/></svg>