<svg width="83" height="89" viewBox="0 0 83 89" xmlns="http://www.w3.org/2000/svg"><title>lighthouse copy</title><path d="M16.075 49l1.551-9H13v-7h5.5V21H14L33 0l19 21h-4v12h5v7h-4.657l5.091 32h.066v.413l1.67 10.497c1.899.626 2.954.934 4.109 1.176.993.207 1.888.312 2.721.312h2v4h-2c-1.129 0-2.292-.137-3.539-.397-1.415-.295-2.63-.657-4.88-1.403C49.825 85.352 48.469 85 46.883 85c-1.586 0-3.024.389-6.372 1.583-3.799 1.355-5.503 1.815-7.716 1.815-2.396 0-4.136-.465-7.868-1.819C21.63 85.384 20.195 85 18.422 85c-1.378 0-3.464.319-6.022.893-.966.217-1.981.466-3.03.74a120.89 120.89 0 00-5.754 1.668l-1.902.616L.48 85.112l1.903-.616.478-.152a124.843 124.843 0 015.493-1.58c.676-.177 1.34-.344 1.99-.5L12 72.656V72h.113L16 49.438V49h.075zm1.82 13l-1.723 10h33.212l-1.591-10H17.895zm2.24-13h25.59l-1.432-9H21.685l-1.55 9zM44 21H22.5v12H44V21zm35.328-7.497l1.17 3.825L58.5 24.05l-1.169-3.825 21.996-6.721zm1.17 23.169l-1.17 3.825-21.996-6.72 1.17-3.826 21.995 6.72zM83 25v4H65v-4h18z" fill-rule="nonzero" fill="#000"/></svg>