<svg xmlns="http://www.w3.org/2000/svg" width="1.625em" height="1em" aria-hidden="true" viewBox="0 0 26 16"><g transform="matrix(-1 0 0 1 25.276 0)"><circle cx="19.531" cy="3.09" r="1"/><circle cx="19.697" cy=".386" r="1"/><circle cx="20.524" cy="1.655" r="1"/><path d="M14.786 10.593h-.258c-.645 0-1.342.21-1.703.55l-.8-.497c-.129-.08-.258.052-.206.183l.335.812-.335.813c-.052.13.103.262.206.183l.8-.498c.361.315 1.058.55 1.703.55h.155a1.777 1.777 0 0 1-.284-.969c0-.42.155-.812.387-1.127Z"/><path d="M15.091 10.703a1.56 1.56 0 0 0-.415 1.046c0 .34.104.68.311.94.65-.13 1.013-.522 1.013-.992s-.312-.863-.909-.994Zm.26.889c-.104 0-.208-.105-.208-.21 0-.104.104-.208.208-.208s.208.104.208.209c0 .104-.104.209-.208.209Zm8.569-4.254.335-.812c.052-.132-.103-.263-.206-.184l-.797.498c-.36-.314-1.055-.55-1.698-.55h-.257c.231.314.385.707.385 1.127 0 .366-.102.68-.283.97h.155c.643 0 1.338-.21 1.698-.551l.797.498c.129.078.283-.053.206-.184l-.334-.812Z"/><path d="M20.083 7.283c0 .47.363.862 1.012.993.208-.261.312-.575.312-.941 0-.418-.156-.784-.416-1.045-.597.156-.908.548-.908.993Zm.649-.105c-.104 0-.208-.104-.208-.209 0-.104.104-.209.208-.209s.208.105.208.21c.026.13-.078.208-.208.208ZM1.071 4.363l.682-.41c.303.282.884.46 1.44.46h.127a1.475 1.475 0 0 1-.228-.818c0-.358.127-.69.329-.947h-.202c-.556 0-1.137.18-1.44.46L1.096 2.7c-.1-.076-.227.052-.176.154l.277.69-.303.666c-.05.102.076.205.177.154Zm2.6.051c.552-.1.853-.452.853-.828 0-.376-.276-.702-.752-.827a1.253 1.253 0 0 0-.351.877c0 .276.075.552.25.778Zm.301-1.28c.1 0 .176.076.176.176 0 .1-.075.176-.176.176a.171.171 0 0 1-.175-.176c0-.1.075-.175.175-.175Zm4.126 1.675 3.412-2.135c.514-.305.668-.991.36-1.5-.308-.508-1.001-.66-1.514-.355L6.917 2.954c-.513.305-.667.99-.359 1.5.334.508 1.026.66 1.54.355Zm10.524-.615-.836-.152c.076-.508-.025-1.042-.38-1.448a1.727 1.727 0 0 0-2.455-.178 1.74 1.74 0 0 0-.178 2.464c.583.685 1.595.787 2.33.279l.582.635c.076.076.202.076.253-.025l.785-1.321c.076-.102.025-.229-.101-.254Z"/><path d="M18.09 8.29c-.968-.436-2.674-1.255-3.132-1.639-.331-.281-.611-.87-.688-1.049-.025-.025-.56-1.382-.866-2.175-.127-.332-.636-.537-1.17-.41-.485.129-2.853 1.536-3.795 2.38-.33.308-.662.666-.84 1.024-.407.41-.967.896-1.375 1.05-.33.076-1.63-.103-2.954-.41.026-.205-.076-.41-.28-.46l-.432-.103c-.153-.051-.331.025-.433.179L.062 9.901a.392.392 0 0 0 .153.563l1.044.537c.204.103.458 0 .535-.204l.865-2.099c.968.23 2.368.538 3.361.538.357 0 .662-.026.866-.128.586-.23 1.171-.691 1.604-1.1.026.025.026.025.026.05-.102.487-.28 1.203-.51 1.664-.28.333-1.655 1.126-2.928 1.766-.076-.23-.33-.359-.534-.256l-.408.179c-.153.077-.254.23-.229.384l.306 3.838c.025.23.229.41.458.358l1.146-.23a.404.404 0 0 0 .305-.486l-.56-2.073c1.579-.793 3.565-1.868 3.972-2.661.433-.87.688-2.073.764-2.482l2.725-1.663c.254.562.763 1.177.993 1.381.763.64 3.208 1.74 3.488 1.843a.675.675 0 0 0 .305.076c.28 0 .56-.179.688-.435.127-.383-.051-.818-.407-.972Z"/></g></svg>