<svg xmlns="http://www.w3.org/2000/svg" width="1.563em" height="1em" aria-hidden="true" viewBox="0 0 25 16"><path fill-rule="evenodd" d="M12.063 0v3.038h.922c.56 0 1.015.453 1.015 1.015v1.04c3.872.482 6.917 1.92 7.925 3.746l2.336-2.03-.819 3.353.819 3.352-2.336-2.03c-.868 1.572-3.244 2.857-6.357 3.492a.898.898 0 0 1 .01.103v.03a.89.89 0 0 1-.892.891h-7.09a.892.892 0 0 1-.882-1.024C2.764 14.17 0 12.318 0 10.162c0-2.431 3.514-4.476 8.282-5.07v-1.04c0-.56.456-1.014 1.016-1.014h.988v-1.26H8.508V0h3.555Zm-.922 9.271a.889.889 0 0 0-.887.891.888.888 0 1 0 1.774 0 .889.889 0 0 0-.887-.89Zm-3.55 0a.889.889 0 0 0-.887.891.888.888 0 1 0 1.775 0 .889.889 0 0 0-.887-.89Zm7.1 0a.889.889 0 0 0-.888.891.888.888 0 1 0 1.775 0 .889.889 0 0 0-.888-.89Z"/></svg>