<svg xmlns="http://www.w3.org/2000/svg" width="1em" height="1em" aria-hidden="true" viewBox="0 0 17 17"><path d="M8.566 16.365c1 0 1.98-.219 2.938-.656a11.32 11.32 0 0 0 2.562-1.594c.75-.625 1.355-1.281 1.813-1.969.458-.687.687-1.28.687-1.78v-1h-2v2.062c-.312.323-.656.635-1.03.937a9.735 9.735 0 0 1-1.196.852 9.119 9.119 0 0 1-1.336.664 6.687 6.687 0 0 1-1.438.406V8.365h3v-1l-3-1.172a3.004 3.004 0 0 0 1.438-1.078 2.88 2.88 0 0 0 .562-1.75c0-.833-.291-1.541-.875-2.125A2.893 2.893 0 0 0 8.566.365c-.833 0-1.541.292-2.125.875a2.893 2.893 0 0 0-.875 2.125c0 .656.188 1.24.563 1.75a3 3 0 0 0 1.224.993l.213.085-3 1.172v1h3v5.922a6.687 6.687 0 0 1-1.437-.406 9.119 9.119 0 0 1-1.336-.664 9.735 9.735 0 0 1-1.195-.852 11.276 11.276 0 0 1-1.032-.937V9.365h-2v1c0 .5.23 1.094.688 1.781.458.688 1.062 1.344 1.812 1.97a11.32 11.32 0 0 0 2.563 1.593 7.006 7.006 0 0 0 2.937.656Zm0-12a.966.966 0 0 1-.71-.289.966.966 0 0 1-.29-.71c0-.282.097-.519.29-.712a.966.966 0 0 1 .71-.289c.282 0 .519.097.711.29.193.192.29.429.29.71a.966.966 0 0 1-.29.711.966.966 0 0 1-.71.29Z"/></svg>