<svg xmlns="http://www.w3.org/2000/svg" width="2em" height="1em" aria-hidden="true" viewBox="0 0 32 16"><path d="M29.242 12.393c.707.017 1.758-.1 1.881-.403.056-.138-.13-.34-.246-.448-.631-.587-1.121-.636-1.595-.683-.406-.04-.825-.083-1.29-.452-.915.252-2.239.528-3.782.715.83.414 2.899 1.322 5.032 1.27Z"/><path d="m5.45 7.924.001-.068c0-.021.002-.041.003-.062l.003-.06.007-.06.005-.055c.002-.02.006-.039.009-.059l.007-.047.013-.057.01-.041c.004-.019.01-.036.015-.054l.01-.036a.97.97 0 0 1 .021-.052l.012-.03a.87.87 0 0 1 .025-.05l.012-.023.03-.047.012-.02.02-.023a.62.62 0 0 1 .19-.164.983.983 0 0 1 .078-.041l.029-.014a1.23 1.23 0 0 1 .112-.04l.057-.016.068-.017.072-.014.062-.011a4.25 4.25 0 0 1 .363-.049c.212-.024.431-.05.654-.102 1.247-.295 1.565-1.137 1.578-1.173a.134.134 0 0 0-.252-.091c-.012.033-.291.744-1.388 1.003a5.225 5.225 0 0 1-.623.097l-.19.022c-.096-.159-.126-.302-.089-.427.06-.196.284-.373.668-.524 1.8-.71 1.634-1.48 1.502-2.1-.079-.369-.116-.607.114-.824.688-.65 1.805-.682 2.022-.682h.038c.42-.018.79-.027 1.14-.027 2.278 0 4.049.362 8.237 1.683 3.976 1.254 8.813 4.769 8.847 6.029.003.096-.02.216-.228.295-1.217.457-4.503 1.184-8.14 1.184-2.192 0-4.178-.264-5.905-.783-2.12-.638-3.996-1.326-5.442-1.991.143-.186.362-.335.666-.45a.134.134 0 0 0-.096-.25c-.377.142-.648.334-.82.584l-.005-.003-.058.105a1.21 1.21 0 0 0-.126.333c-.006.026-.009.054-.014.08-.005.03-.011.06-.014.09a1.764 1.764 0 0 0-.01.158v.02c-.006.56.234 1.27.664 2.177a19.104 19.104 0 0 0 .308.622l.047.091.128.245.19.357c.063.117.123.233.18.346l.022.043.145.293c.002.005.003.01.006.014.256.536.44 1.005.557 1.4l.004.013a7.036 7.036 0 0 1 .065.24 3.043 3.043 0 0 1 .07.337l.01.072.009.085.006.082.002.056v.087c-.001.011-.003.022-.003.034a1.51 1.51 0 0 1-.01.085c0 .006-.002.01-.004.017a.499.499 0 0 1-.053.155l-.01.013a.212.212 0 0 1-.127.091.24.24 0 0 1-.032.007l-.022.002a.624.624 0 0 1-.242-.032 1.385 1.385 0 0 1-.048-.015l-.034-.012a1.943 1.943 0 0 1-.07-.028l-.05-.022-.04-.019a1.456 1.456 0 0 1-.055-.027l-.077-.041-.066-.037a3.203 3.203 0 0 1-.06-.036c-.02-.011-.037-.023-.057-.035a3.84 3.84 0 0 1-.117-.076l-.04-.026-.107-.076a8.738 8.738 0 0 1-.204-.15c-2.189-1.683-3.484-3.163-4.061-6.16l-.035-.191a1.454 1.454 0 0 1-.008-.053l-.021-.129c-.005-.026-.007-.05-.011-.076l-.014-.097a8.03 8.03 0 0 1-.01-.076 1.274 1.274 0 0 0-.01-.089l-.006-.07-.007-.086-.005-.067-.005-.08-.002-.065-.002-.075v-.064Zm5.235-1.99c.06.088.146.218.27.372.062.077.13.163.209.252a7.852 7.852 0 0 0 .94.919c.127.114.273.216.418.33.145.114.308.212.47.324.164.107.339.205.516.313.18.1.37.19.56.287l.6.259c.208.075.419.148.632.22l.657.179c.225.054.44.096.661.145.44.09.879.183 1.319.255.438.079.87.15 1.288.207.418.06.822.118 1.207.158.384.043.747.085 1.084.112 1.345.125 2.246.135 2.246.135l-2.217-.364-1.07-.18c-.381-.06-.78-.143-1.193-.211-.416-.066-.838-.161-1.27-.238-.432-.075-.871-.173-1.31-.268-.218-.046-.445-.088-.655-.137l-.634-.164-.613-.2-.585-.23-.553-.258c-.175-.094-.35-.18-.515-.276a11.619 11.619 0 0 1-.902-.58c-.133-.099-.263-.191-.38-.288a7.18 7.18 0 0 1-.334-.275 6.932 6.932 0 0 1-.283-.254 6.601 6.601 0 0 1-.233-.225 5.743 5.743 0 0 1-.416-.455s.028.048.086.137Z"/><path d="M3.325 2.288c-.88-.448-1.875-.604-2.28-.651C1.54.555 2.428.205 3.102.104c1.359-.203 2.883.427 3.453 1.14.748.937 1.433 1.266 1.76 1.377-.146.277-.082.58-.023.854.122.574.25 1.167-1.338 1.794-.003 0-.005.002-.007.003-1.034-1.024-2.026-1.278-2.069-1.289-2.754-.669-3.25-1.632-3.338-1.996.468.09 1.096.251 1.661.54l.123-.239Zm.48-1.132c.33-.102.555-.318.504-.482C4.258.509 3.949.459 3.62.56c-.328.102-.553.318-.502.483.051.164.36.214.687.112Z"/></svg>