<svg xmlns="http://www.w3.org/2000/svg" width=".59em" height="1em" aria-hidden="true" viewBox="0 0 10 17"><path d="M8.853 7.311a.51.51 0 0 0-.802-.086l-.6.617c-.019-.424.044-.91.262-1.434a3.512 3.512 0 0 0 .107-2.36 7.073 7.073 0 0 0-.153-.446l.274-.067a.29.29 0 1 0-.142-.564l-.366.09a4.74 4.74 0 0 0-.387-.653l.28-.237a.288.288 0 0 0 .033-.41.296.296 0 0 0-.415-.032l-.27.23a3.3 3.3 0 0 0-.523-.436l.177-.315a.289.289 0 0 0-.114-.395.296.296 0 0 0-.4.113l-.177.316a3.206 3.206 0 0 0-.622-.193l.039-.335a.291.291 0 0 0-.26-.322.293.293 0 0 0-.325.256L4.431.98C4.38.978 4.327.973 4.274.973c-.787 0-1.76.53-1.961 1.386-.03.127-.087.248-.168.362-.205.283-.598.662-1.313.856a.355.355 0 0 0-.246.463l.292.826a.36.36 0 0 0 .21.215.366.366 0 0 0 .301-.017c.214-.112 1.327-.668 2.218-.556.217.04.374.06.478.06.228 0 .453-.042.665-.124a.63.63 0 0 1 .024.095.165.165 0 0 1-.068.155c-.499.36-2.101 1.718-1.76 4.056.014.08.366 1.948 2.194 2.539a.257.257 0 0 1 .178.244v.508c0 .517-.205 1-.578 1.36a1.85 1.85 0 0 1-1.34.527 3.222 3.222 0 0 1-.736-.108 1.437 1.437 0 0 1-.745-.44.91.91 0 0 1-.233-.561c-.027-.761.218-.805.439-.844a.453.453 0 0 0 .47-.393.436.436 0 0 0-.337-.488.882.882 0 0 0-.147-.022c-.529-.039-1.573.217-1.75 1.457-.037.251-.027.51.017.765l-.148.048a.29.29 0 0 0 .092.566c.03 0 .061-.004.092-.014l.125-.041c.176.43.508.973 1.12 1.4l-.128.206a.289.289 0 0 0 .097.4.296.296 0 0 0 .404-.096l.134-.217a4.443 4.443 0 0 0 1.858.429c.238 0 .489-.024.746-.076l.076.277a.294.294 0 0 0 .36.204.29.29 0 0 0 .207-.356l-.078-.286a4.032 4.032 0 0 0 1.578-1.072l.275.19a.294.294 0 0 0 .41-.072.288.288 0 0 0-.073-.404l-.242-.167c.295-.417.525-.89.672-1.398.054-.184.1-.371.136-.56l.287.07a.294.294 0 0 0 .355-.213.29.29 0 0 0-.215-.352l-.341-.082a6.74 6.74 0 0 0 .018-1.12l.617.13a.52.52 0 0 0 .387-.072.502.502 0 0 0 .22-.327c.265-1.354-.241-2.447-.567-2.978Zm-5.05-4.442a.394.394 0 1 1 0-.788.394.394 0 0 1 0 .788Zm5.078 7.212-.766-.158a3.284 3.284 0 0 0-.284-.731 3.205 3.205 0 0 1-.253-.628l.845-.85c.24.409.647 1.297.458 2.367Z"/></svg>