<svg xmlns="http://www.w3.org/2000/svg" width="1em" height="1em" aria-hidden="true" viewBox="0 0 16 16"><path fill-rule="evenodd" d="M5.056 5.702c.502.25.921.67 1.089 1.088l1.257-.586c0 .837-.754 1.674 0 2.512L6.145 8.13c-.084.25-.251.418-.419.67.084.167.168.334.335.418-.251 0-.503 0-.754-.084l-.503.252c.084.25.252.502.503.67-.503 0-1.005-.168-1.424-.42-1.34.252-3.352-.25-3.687-1.758.251.084.503 0 .754-.083C.615 7.71.364 7.71.112 7.627.028 6.54.866 5.785 1.704 5.45c.754-.586 1.927-.837 3.017-1.088-.084.251.083.837.335 1.34Zm-2.514.083c.419.754.335 1.759.168 2.596.586-.754.754-2.01-.168-2.596Zm-.922.586a.36.36 0 0 1 .336.335c0 .251-.168.335-.336.335-.167 0-.335-.084-.335-.335a.36.36 0 0 1 .335-.335Zm9.72 5.275c.502.251.921.67 1.089 1.089l1.257-.586c0 .837-.754 1.674 0 2.511l-1.257-.586c-.084.251-.251.419-.419.67.084.168.168.335.335.419-.251 0-.503 0-.754-.084l-.503.251c.084.251.252.503.503.67-.503 0-1.005-.167-1.424-.419-1.425.252-3.352-.25-3.687-1.758.168.084.503 0 .67-.084-.251-.083-.502-.083-.754-.167-.083-1.089.754-1.842 1.592-2.177.754-.586 1.927-.837 3.017-1.088-.084.25.083.837.335 1.34Zm-2.514.084c.42.753.335 1.758.168 2.595.586-.753.754-2.009-.168-2.595Zm-.922.586a.36.36 0 0 1 .336.335c0 .251-.168.335-.336.335-.167 0-.335-.084-.335-.335a.36.36 0 0 1 .335-.335Zm5.363-10.885c.503.252.922.586 1.09 1.089l1.256-.586c0 .837-.754 1.674 0 2.512l-1.257-.587a2.544 2.544 0 0 1-.419.587c.084.167.252.335.335.502-.251 0-.502-.084-.754-.167a1.753 1.753 0 0 1-.502.334c.083.252.25.503.502.67-.502 0-1.005-.167-1.424-.418-1.34.167-3.352-.335-3.687-1.759.252 0 .503 0 .754-.167-.335 0-.586 0-.838-.168-.083-1.004.755-1.758 1.592-2.093.754-.586 1.927-.92 3.017-1.088-.084.25.084.837.335 1.34Zm-2.514.084c.42.754.42 1.675.168 2.512.586-.67.754-1.926-.168-2.512Zm-.921.586c.25 0 .335.168.335.335 0 .168-.084.335-.335.335a.36.36 0 0 1-.336-.335.36.36 0 0 1 .336-.335Z"/></svg>